<?xml version="1.0" standalone="no"?>
<!DOCTYPE svg PUBLIC "-//W3C//DTD SVG 20010904//EN"
 "http://www.w3.org/TR/2001/REC-SVG-20010904/DTD/svg10.dtd">
<svg version="1.0" xmlns="http://www.w3.org/2000/svg"
 width="1024.000000pt" height="1024.000000pt" viewBox="0 0 1024.000000 1024.000000"
 preserveAspectRatio="xMidYMid meet">

<g transform="translate(0.000000,1024.000000) scale(0.100000,-0.100000)"
fill="#000000" stroke="none">
<path d="M4048 8256 c-37 -13 -193 -102 -733 -416 -148 -87 -405 -235 -570
-330 -323 -185 -360 -209 -389 -260 -29 -48 -35 -298 -37 -1467 l-2 -973 -77
0 c-76 0 -78 1 -90 29 -9 22 -9 47 1 111 15 107 7 262 -20 366 -11 44 -41 129
-67 188 -70 163 -73 201 -39 455 27 206 28 212 11 278 -24 99 -87 169 -175
193 -62 17 -185 12 -253 -11 -222 -74 -363 -319 -345 -595 l6 -92 -97 -7
c-248 -17 -407 -99 -515 -263 -82 -126 -120 -258 -137 -476 -26 -347 75 -632
298 -836 106 -98 283 -170 417 -170 24 0 51 -10 81 -31 84 -58 131 -73 224
-73 65 0 99 5 145 23 74 28 72 28 174 1 113 -30 268 -25 383 12 l76 25 4 -301
c3 -317 4 -322 52 -374 34 -38 70 -52 178 -67 489 -68 2931 -380 3689 -471
125 -15 242 -24 261 -20 28 5 138 62 227 118 16 10 27 2 85 -60 73 -77 125
-112 196 -133 25 -7 65 -28 89 -46 83 -62 190 -102 274 -103 29 0 49 -9 81
-35 23 -19 73 -49 112 -67 67 -32 73 -33 199 -33 l131 0 77 38 c113 56 188
130 240 236 39 80 42 93 45 186 2 55 -1 119 -6 143 -7 31 -6 56 4 95 8 29 14
64 14 78 0 15 12 37 31 55 57 54 82 109 87 193 2 42 0 92 -5 111 -9 32 -5 41
38 107 93 143 135 308 127 499 -8 192 -59 308 -197 456 -78 83 -156 148 -228
189 l-43 24 -1 900 c-1 1184 -12 1980 -28 2020 -17 41 -68 93 -105 104 -35 11
-438 69 -951 136 -192 26 -633 84 -980 130 -346 46 -778 102 -960 125 -877
109 -931 113 -1007 86z m1077 -281 c451 -58 1050 -136 1330 -174 613 -84 1206
-161 1240 -161 14 0 25 -3 24 -7 0 -5 -75 -56 -167 -114 -354 -225 -705 -451
-889 -573 -165 -108 -198 -126 -232 -126 -22 0 -474 54 -1003 120 -530 65
-1123 137 -1318 159 -570 65 -1217 140 -1325 154 l-100 12 95 56 c52 31 201
118 330 194 129 75 381 223 560 328 443 259 422 250 540 242 52 -4 464 -53
915 -110z m2773 -2307 c1 -450 0 -818 -3 -818 -3 0 -25 10 -48 21 -67 35 -325
116 -409 129 -43 7 -109 10 -147 8 -87 -6 -150 -44 -201 -119 -34 -51 -35 -54
-35 -153 0 -87 3 -107 24 -146 66 -124 122 -168 252 -195 120 -25 247 -92 367
-192 58 -49 63 -69 31 -114 -19 -28 -24 -29 -97 -29 -60 0 -88 -5 -127 -24
-56 -26 -117 -83 -140 -133 -12 -25 -23 -33 -53 -38 -195 -31 -364 -135 -487
-300 -16 -22 -33 -42 -36 -45 -13 -10 -48 -88 -69 -155 -19 -57 -23 -96 -25
-203 -2 -146 5 -132 -77 -181 l-38 -23 0 31 c0 17 5 31 11 31 6 0 9 -7 5 -15
-7 -18 -4 -18 29 -3 19 8 22 14 13 20 -9 6 -5 8 12 6 l25 -3 6 135 c7 144 17
220 29 220 4 0 10 10 13 23 2 12 8 31 12 41 6 14 5 17 -4 11 -11 -6 -11 -3 -1
16 17 32 25 39 16 14 -5 -13 -4 -17 3 -10 5 6 11 16 13 24 2 8 11 24 20 35 10
12 17 24 18 29 0 4 22 29 49 56 33 32 46 52 39 59 -6 6 -6 12 1 17 6 3 11 3
10 -2 -4 -21 3 -21 24 0 14 14 19 25 12 30 -6 5 -2 6 9 3 21 -7 49 11 39 27
-3 6 -1 7 5 3 16 -10 57 31 57 57 0 17 6 22 35 23 l35 2 -35 -19 c-56 -30 -13
-22 55 10 34 16 78 33 99 36 35 7 60 25 35 25 -7 0 -4 6 7 14 13 10 21 11 26
3 4 -7 12 -6 25 3 16 13 16 12 -1 -8 -17 -19 -17 -22 -3 -22 20 0 45 47 40 75
l-3 20 9 -20 c8 -19 9 -19 16 -2 5 11 1 25 -10 37 -17 19 -17 20 -1 20 9 0 15
-4 11 -9 -9 -16 17 -25 29 -10 6 8 22 23 36 32 22 15 17 23 -13 18 -5 -1 -6 3
-2 9 4 7 12 7 25 0 13 -7 29 -5 53 5 40 16 178 35 171 23 -3 -4 2 -5 11 -2 9
4 14 9 11 11 -3 3 4 13 16 22 29 24 17 52 -35 87 -40 28 -48 34 -82 62 -8 7
-15 10 -15 6 0 -4 -10 2 -23 14 -13 12 -26 19 -30 16 -3 -4 2 -14 11 -23 10
-9 12 -12 5 -8 -6 5 -17 6 -22 3 -6 -4 -8 4 -5 18 3 20 -3 27 -39 45 -24 12
-50 21 -58 21 -8 0 -19 4 -25 10 -5 5 -25 12 -44 14 -19 3 -55 12 -79 20 -52
19 -65 20 -55 4 5 -7 3 -8 -7 -2 -14 9 -19 10 -41 13 -9 1 -9 4 2 12 11 8 12
12 2 16 -7 2 -19 11 -27 20 -8 8 -20 11 -26 7 -8 -4 -9 -3 -5 5 5 7 -4 30 -19
53 -24 35 -29 39 -39 26 -9 -12 -14 -13 -22 -3 -8 8 -8 16 1 29 10 13 14 14
18 4 2 -7 7 -10 11 -7 4 4 0 13 -8 22 -8 8 -12 17 -9 21 4 3 2 6 -3 6 -9 0
-14 34 -17 120 -1 39 12 109 25 129 9 15 7 24 -10 49 -18 24 -19 31 -7 35 9 4
12 1 8 -9 -4 -10 0 -12 11 -8 9 3 16 1 16 -6 0 -6 -4 -8 -10 -5 -5 3 -10 2
-10 -4 0 -24 21 -18 50 15 17 20 56 49 86 65 50 25 63 27 137 24 45 -2 104 -9
131 -15 28 -6 52 -7 55 -2 7 11 71 -14 71 -28 0 -6 3 -9 8 -8 12 3 124 -34
182 -59 30 -14 68 -29 84 -34 l29 -8 -8 1282 c-4 705 -9 1285 -12 1290 -13 21
-18 0 -15 -65 2 -40 1 -71 -1 -68 -3 3 -7 42 -8 88 -2 45 -7 82 -11 82 -4 0
-8 -5 -8 -11 0 -5 -4 -8 -9 -5 -5 4 -11 3 -13 -1 -1 -5 -16 -15 -32 -23 -32
-16 -36 -37 -6 -32 10 2 21 -2 25 -8 4 -6 -4 -10 -19 -10 -14 0 -28 5 -31 10
-8 13 -25 13 -25 1 0 -5 10 -13 21 -16 17 -6 19 -9 8 -16 -10 -6 -7 -9 11 -10
17 -1 19 -3 8 -6 -10 -2 -25 0 -35 6 -14 8 -15 10 -3 11 13 0 13 1 0 10 -20
13 -33 13 -25 0 3 -6 -1 -7 -10 -4 -9 4 -25 -2 -38 -14 -12 -11 -37 -27 -55
-37 -39 -19 -37 -30 2 -15 18 6 25 6 21 0 -3 -6 -12 -10 -19 -10 -8 0 -19 -7
-26 -15 -7 -8 -18 -15 -24 -15 -6 0 -4 4 4 10 29 18 1 21 -29 2 -31 -19 -33
-35 -3 -26 14 5 14 4 -1 -6 -10 -6 -14 -16 -10 -23 4 -7 -4 -4 -19 5 -27 18
-51 8 -41 -18 3 -8 -6 -18 -21 -25 -14 -7 -26 -16 -26 -21 0 -4 -5 -8 -12 -8
-6 0 -3 9 7 20 10 11 15 20 11 20 -4 0 -19 -9 -33 -20 -14 -11 -32 -20 -40
-20 -8 0 -11 -5 -7 -11 4 -7 10 -7 16 -1 11 11 38 5 38 -9 0 -4 -7 -6 -15 -3
-8 4 -23 0 -32 -7 -10 -8 -14 -9 -10 -2 4 6 2 15 -4 18 -6 4 -13 -2 -16 -13
-3 -14 -11 -18 -26 -15 -18 4 -20 3 -7 -7 13 -10 13 -11 -2 -6 -23 7 -22 -3 1
-31 20 -24 41 -30 41 -13 0 6 6 10 14 10 8 0 16 5 18 11 2 7 13 5 31 -4 14 -8
24 -17 21 -20 -3 -3 -14 -1 -25 6 -24 15 -36 2 -18 -19 13 -16 12 -16 -8 -3
-18 11 -25 11 -35 1 -17 -17 -26 -15 -33 8 -4 11 -11 17 -17 14 -7 -5 -8 -2
-3 6 5 8 3 11 -6 8 -8 -3 -13 -11 -11 -18 2 -7 -5 -9 -18 -5 -15 5 -18 3 -14
-9 3 -9 1 -16 -4 -16 -6 0 -9 9 -7 20 2 11 0 18 -6 15 -5 -4 -9 -17 -9 -31 0
-13 -5 -24 -11 -24 -6 0 -8 9 -4 20 3 11 4 20 2 20 -9 0 -44 -36 -50 -52 -4
-12 -14 -15 -32 -12 -19 3 -24 1 -19 -7 4 -8 3 -9 -4 -5 -7 4 -12 2 -12 -4 0
-6 -4 -9 -9 -6 -5 3 -14 -1 -21 -9 -7 -8 -8 -15 -3 -15 5 0 10 -14 10 -30 0
-17 -4 -26 -7 -19 -6 8 -13 8 -30 -1 -16 -9 -25 -9 -33 -1 -14 14 -28 14 -24
-1 1 -6 -9 -14 -22 -17 -13 -4 -29 -15 -35 -26 -13 -23 -37 -44 -51 -45 -5 0
-4 4 4 9 9 6 10 11 2 15 -6 4 -37 -13 -70 -38 -32 -25 -61 -42 -65 -39 -3 4
-6 1 -6 -5 0 -7 -3 -11 -7 -10 -11 3 -83 -45 -83 -56 0 -4 7 -6 15 -2 9 3 24
-3 35 -14 16 -16 17 -20 5 -20 -8 0 -15 5 -15 12 0 9 -3 9 -12 0 -7 -7 -19
-12 -27 -12 -14 0 -16 -180 -13 -1805 2 -1018 -1 -1805 -6 -1805 -5 0 -7 797
-6 1827 l2 1827 49 31 c26 18 80 52 118 77 39 25 142 92 230 150 88 57 219
142 290 188 117 75 287 185 525 341 l85 56 5 -521 c3 -287 6 -889 8 -1338z
m-216 1679 c-24 -11 -31 -33 -7 -24 8 4 17 2 20 -3 3 -5 -4 -11 -15 -15 -11
-3 -20 -11 -20 -16 0 -5 -8 -9 -17 -9 -17 1 -17 2 1 15 10 7 15 19 11 25 -9
14 24 52 38 43 6 -4 2 -11 -11 -16z m128 -7 c0 -5 -4 -10 -10 -10 -5 0 -10 5
-10 10 0 6 5 10 10 10 6 0 10 -4 10 -10z m-50 -20 c0 -5 -5 -10 -11 -10 -5 0
-7 5 -4 10 3 6 8 10 11 10 2 0 4 -4 4 -10z m50 -20 c0 -5 -4 -10 -10 -10 -5 0
-10 5 -10 10 0 6 5 10 10 10 6 0 10 -4 10 -10z m47 -77 c-2 -16 -4 -3 -4 27 0
30 2 43 4 28 2 -16 2 -40 0 -55z m-273 22 c-21 -16 -34 -19 -34 -7 0 8 42 30
49 25 3 -2 -4 -10 -15 -18z m171 -10 c-23 -8 -83 -10 -79 -3 3 4 24 8 47 7 23
0 38 -2 32 -4z m-255 -20 c0 -2 -6 -5 -13 -8 -8 -3 -14 1 -14 8 0 7 6 11 14 8
7 -3 13 -6 13 -8z m90 -5 c-8 -5 -22 -9 -30 -9 -10 0 -8 3 5 9 27 12 43 12 25
0z m112 -7 c-15 -3 -22 -10 -18 -19 6 -14 -5 -19 -17 -7 -11 11 14 33 37 32
19 -2 19 -2 -2 -6z m-102 -45 c0 -16 -3 -19 -11 -11 -6 6 -8 16 -5 22 11 17
16 13 16 -11z m-190 -60 c0 -11 -4 -10 -34 5 -14 8 -23 16 -20 19 6 7 54 -15
54 -24z m30 22 c0 -5 -4 -10 -10 -10 -5 0 -10 5 -10 10 0 6 5 10 10 10 6 0 10
-4 10 -10z m-3785 -146 c297 -35 578 -69 624 -75 47 -5 263 -32 480 -59 218
-27 527 -65 686 -85 160 -19 438 -53 619 -75 181 -22 332 -43 335 -46 6 -6 3
-3735 -3 -3741 -3 -4 -993 114 -1326 157 -124 16 -349 45 -500 65 -574 73
-1663 216 -1970 258 l-95 13 -7 949 c-7 951 -3 2319 8 2621 l6 160 301 -38
c166 -21 545 -68 842 -104z m4206 -36 c-8 -57 -9 -59 -10 -20 -1 30 -5 41 -13
36 -7 -4 -8 -3 -4 5 4 6 12 8 18 5 7 -5 9 20 5 77 -6 81 -5 82 4 22 6 -39 6
-87 0 -125z m-541 148 c0 -3 -4 -8 -10 -11 -5 -3 -10 -1 -10 4 0 6 5 11 10 11
6 0 10 -2 10 -4z m253 -53 c-7 -2 -21 -2 -30 0 -10 3 -4 5 12 5 17 0 24 -2 18
-5z m-258 -51 c-6 -6 -35 18 -35 29 0 5 9 1 20 -8 11 -9 17 -19 15 -21z m-85
17 c-13 -6 -28 -15 -32 -22 -5 -8 -8 -7 -8 5 0 16 18 25 50 26 8 0 4 -4 -10
-9z m140 -9 c0 -5 -5 -10 -11 -10 -5 0 -7 5 -4 10 3 6 8 10 11 10 2 0 4 -4 4
-10z m-123 -26 c-3 -3 -12 -4 -19 -1 -8 3 -5 6 6 6 11 1 17 -2 13 -5z m313
-34 c0 -5 -4 -10 -10 -10 -5 0 -10 5 -10 10 0 6 5 10 10 10 6 0 10 -4 10 -10z
m-150 -80 c0 -5 -4 -10 -10 -10 -5 0 -10 5 -10 10 0 6 5 10 10 10 6 0 10 -4
10 -10z m351 -17 c-12 -20 -14 -14 -5 12 4 9 9 14 11 11 3 -2 0 -13 -6 -23z
m34 -3 c3 -5 1 -10 -4 -10 -6 0 -11 5 -11 10 0 6 2 10 4 10 3 0 8 -4 11 -10z
m-918 -52 c-3 -7 -5 -2 -5 12 0 14 2 19 5 13 2 -7 2 -19 0 -25z m834 14 c-7
-2 -18 1 -23 6 -8 8 -4 9 13 5 13 -4 18 -8 10 -11z m-861 -42 c0 -16 -4 -30
-10 -30 -5 0 -10 14 -10 30 0 17 5 30 10 30 6 0 10 -13 10 -30z m470 26 c0 -3
-4 -8 -10 -11 -5 -3 -10 -1 -10 4 0 6 5 11 10 11 6 0 10 -2 10 -4z m297 -2
c-3 -3 -12 -4 -19 -1 -8 3 -5 6 6 6 11 1 17 -2 13 -5z m-850 -24 c-14 -11 -29
-20 -34 -20 -10 1 39 39 51 40 5 0 -3 -9 -17 -20z m380 14 c-3 -3 -12 -4 -19
-1 -8 3 -5 6 6 6 11 1 17 -2 13 -5z m193 -14 c0 -5 -5 -10 -11 -10 -5 0 -7 5
-4 10 3 6 8 10 11 10 2 0 4 -4 4 -10z m-540 -25 c7 -8 9 -15 6 -15 -4 0 -14 7
-22 15 -9 8 -11 15 -6 15 5 0 15 -7 22 -15z m393 8 c-7 -2 -21 -2 -30 0 -10 3
-4 5 12 5 17 0 24 -2 18 -5z m167 -43 c0 -5 -2 -10 -4 -10 -3 0 -8 5 -11 10
-3 6 -1 10 4 10 6 0 11 -4 11 -10z m210 -20 c0 -5 -4 -10 -10 -10 -5 0 -10 5
-10 10 0 6 5 10 10 10 6 0 10 -4 10 -10z m-720 -10 c0 -5 -4 -10 -10 -10 -5 0
-10 5 -10 10 0 6 5 10 10 10 6 0 10 -4 10 -10z m-130 -47 c0 -21 -3 -24 -9
-14 -5 8 -7 20 -4 28 8 21 13 15 13 -14z m407 21 c-3 -3 -12 -4 -19 -1 -8 3
-5 6 6 6 11 1 17 -2 13 -5z m-500 -61 c-3 -10 -5 -4 -5 12 0 17 2 24 5 18 2
-7 2 -21 0 -30z m503 17 c0 -5 -4 -10 -9 -10 -6 0 -13 5 -16 10 -3 6 1 10 9
10 9 0 16 -4 16 -10z m680 -10 c0 -5 -4 -10 -10 -10 -5 0 -10 5 -10 10 0 6 5
10 10 10 6 0 10 -4 10 -10z m-556 -19 c4 -5 -3 -7 -14 -4 -23 6 -26 13 -6 13
8 0 17 -4 20 -9z m-217 -7 c-3 -3 -12 -4 -19 -1 -8 3 -5 6 6 6 11 1 17 -2 13
-5z m-384 -63 c10 -11 9 -13 -3 -9 -9 3 -16 18 -17 39 -1 24 0 26 4 9 3 -14
10 -31 16 -39z m67 -71 c-5 -18 -8 -7 -12 40 -3 36 -3 70 1 75 9 15 19 -86 11
-115z m305 100 c3 -5 2 -10 -4 -10 -5 0 -13 5 -16 10 -3 6 -2 10 4 10 5 0 13
-4 16 -10z m840 -30 c3 -5 1 -10 -4 -10 -6 0 -11 5 -11 10 0 6 2 10 4 10 3 0
8 -4 11 -10z m-1217 -108 c14 -4 16 -22 4 -22 -15 0 -32 50 -31 88 2 33 2 32
9 -12 3 -28 12 -52 18 -54z m172 94 c0 -3 -4 -8 -10 -11 -5 -3 -10 -1 -10 4 0
6 5 11 10 11 6 0 10 -2 10 -4z m110 -6 c0 -5 -4 -10 -10 -10 -5 0 -10 5 -10
10 0 6 5 10 10 10 6 0 10 -4 10 -10z m547 4 c-3 -3 -12 -4 -19 -1 -8 3 -5 6 6
6 11 1 17 -2 13 -5z m-677 -43 c0 -11 3 -27 6 -35 4 -11 2 -15 -7 -11 -14 5
-20 65 -6 65 4 0 7 -9 7 -19z m484 4 c-4 -8 -11 -15 -16 -15 -6 0 -5 6 2 15 7
8 14 15 16 15 2 0 1 -7 -2 -15z m-69 -5 c3 -5 1 -10 -4 -10 -6 0 -11 5 -11 10
0 6 2 10 4 10 3 0 8 -4 11 -10z m652 -22 c-3 -7 -5 -2 -5 12 0 14 2 19 5 13 2
-7 2 -19 0 -25z m-537 12 c0 -5 -4 -10 -10 -10 -5 0 -10 5 -10 10 0 6 5 10 10
10 6 0 10 -4 10 -10z m305 0 c3 -5 1 -10 -4 -10 -6 0 -11 5 -11 10 0 6 2 10 4
10 3 0 8 -4 11 -10z m-788 -16 c-3 -3 -12 -4 -19 -1 -8 3 -5 6 6 6 11 1 17 -2
13 -5z m-127 -24 c0 -5 -4 -10 -10 -10 -5 0 -10 5 -10 10 0 6 5 10 10 10 6 0
10 -4 10 -10z m80 -30 c0 -5 -2 -10 -4 -10 -3 0 -8 5 -11 10 -3 6 -1 10 4 10
6 0 11 -4 11 -10z m-152 -28 c-14 -3 -18 -14 -18 -48 0 -24 -4 -44 -8 -44 -8
0 -6 38 4 87 3 16 9 20 22 15 16 -6 16 -7 0 -10z m129 2 c-3 -3 -12 -4 -19 -1
-8 3 -5 6 6 6 11 1 17 -2 13 -5z m93 -4 c8 -5 11 -12 7 -16 -4 -4 -15 0 -24 9
-18 18 -8 23 17 7z m450 0 c0 -5 -5 -10 -11 -10 -5 0 -7 5 -4 10 3 6 8 10 11
10 2 0 4 -4 4 -10z m230 -6 c0 -2 -7 -4 -15 -4 -8 0 -15 4 -15 10 0 5 7 7 15
4 8 -4 15 -8 15 -10z m-377 -11 c-7 -2 -19 -2 -25 0 -7 3 -2 5 12 5 14 0 19
-2 13 -5z m247 -3 c0 -5 -5 -10 -11 -10 -5 0 -7 5 -4 10 3 6 8 10 11 10 2 0 4
-4 4 -10z m-320 -10 c0 -5 -4 -10 -9 -10 -6 0 -13 5 -16 10 -3 6 1 10 9 10 9
0 16 -4 16 -10z m-360 -10 c0 -5 -4 -10 -10 -10 -5 0 -10 5 -10 10 0 6 5 10
10 10 6 0 10 -4 10 -10z m813 3 c-7 -2 -19 -2 -25 0 -7 3 -2 5 12 5 14 0 19
-2 13 -5z m-5742 -26 c59 -39 66 -81 43 -244 -11 -81 -19 -190 -18 -263 0
-135 -1 -131 89 -360 100 -255 85 -509 -41 -697 -24 -36 -44 -67 -44 -69 0
-17 108 18 162 52 20 13 41 24 44 24 15 0 -6 -160 -30 -234 -59 -175 -215
-339 -378 -396 -57 -20 -152 -27 -162 -12 -2 4 23 22 57 40 34 17 79 46 100
63 40 33 97 122 97 152 0 15 -8 12 -43 -17 -90 -74 -271 -136 -395 -136 -27 0
-84 9 -126 20 -212 54 -373 214 -446 445 -31 98 -39 314 -16 440 57 307 176
440 418 465 254 26 472 -57 518 -196 18 -54 8 -169 -18 -202 -23 -31 -17 -31
-102 5 -59 25 -77 28 -185 28 -131 0 -203 -16 -266 -58 -66 -44 -51 -51 131
-58 134 -5 177 -10 229 -28 137 -47 200 -120 209 -239 5 -79 -12 -131 -54
-159 -24 -15 -57 -19 -204 -24 -184 -6 -230 -16 -230 -51 0 -46 185 -103 335
-103 78 0 97 4 147 28 72 35 124 95 145 166 22 76 14 209 -16 276 l-22 49 25
46 c43 81 58 151 54 263 -3 91 -7 110 -35 167 -52 106 -157 195 -282 239 -29
10 -57 25 -62 32 -15 23 -10 200 6 264 45 173 173 299 306 304 14 1 41 -9 60
-22z m5594 3 c3 -5 1 -10 -4 -10 -6 0 -11 5 -11 10 0 6 2 10 4 10 3 0 8 -4 11
-10z m-681 -35 c-7 -17 -11 -17 -39 -4 -19 9 -18 9 2 5 13 -2 26 0 29 5 9 14
14 10 8 -6z m85 -16 c-16 -10 -23 -4 -14 10 3 6 11 8 17 5 6 -4 5 -9 -3 -15z
m81 5 c0 -8 -5 -12 -10 -9 -6 4 -8 11 -5 16 9 14 15 11 15 -7z m-130 -4 c0 -5
-7 -10 -16 -10 -8 0 -12 5 -9 10 3 6 10 10 16 10 5 0 9 -4 9 -10z m180 0 c0
-5 -2 -10 -4 -10 -3 0 -8 5 -11 10 -3 6 -1 10 4 10 6 0 11 -4 11 -10z m330
-10 c0 -5 -4 -10 -10 -10 -5 0 -10 5 -10 10 0 6 5 10 10 10 6 0 10 -4 10 -10z
m-575 -20 c3 -5 -1 -10 -9 -10 -9 0 -16 5 -16 10 0 6 4 10 9 10 6 0 13 -4 16
-10z m43 -3 c8 -10 6 -13 -7 -13 -11 0 -17 6 -14 13 3 7 6 13 8 13 1 0 7 -6
13 -13z m109 7 c-3 -3 -12 -4 -19 -1 -8 3 -5 6 6 6 11 1 17 -2 13 -5z m88 -24
c-3 -5 -14 -10 -23 -10 -15 0 -15 2 -2 10 20 13 33 13 25 0z m-185 -60 c0 -5
-2 -10 -4 -10 -3 0 -8 5 -11 10 -3 6 -1 10 4 10 6 0 11 -4 11 -10z m815 -40
c-3 -5 -10 -10 -16 -10 -5 0 -9 5 -9 10 0 6 7 10 16 10 8 0 12 -4 9 -10z
m-938 -47 c-3 -10 -5 -2 -5 17 0 19 2 27 5 18 2 -10 2 -26 0 -35z m318 -103
c3 -5 -3 -10 -15 -10 -12 0 -18 5 -15 10 3 6 10 10 15 10 5 0 12 -4 15 -10z
m-25 -30 c0 -5 -7 -10 -16 -10 -8 0 -12 5 -9 10 3 6 10 10 16 10 5 0 9 -4 9
-10z m-25 -29 c-6 -5 -25 10 -25 20 0 5 6 4 14 -3 8 -7 12 -15 11 -17z m80 -1
c25 -11 -1 -11 -35 0 -20 6 -21 8 -5 8 11 0 29 -3 40 -8z m892 -62 c-2 -13 -4
-5 -4 17 -1 22 1 32 4 23 2 -10 2 -28 0 -40z m-772 32 c3 -5 2 -10 -4 -10 -5
0 -13 5 -16 10 -3 6 -2 10 4 10 5 0 13 -4 16 -10z m85 -20 c0 -5 -4 -10 -9
-10 -6 0 -13 5 -16 10 -3 6 1 10 9 10 9 0 16 -4 16 -10z m-13 -36 c-3 -3 -12
-4 -19 -1 -8 3 -5 6 6 6 11 1 17 -2 13 -5z m-537 -24 c0 -5 -4 -10 -10 -10 -5
0 -10 5 -10 10 0 6 5 10 10 10 6 0 10 -4 10 -10z m0 -45 c-7 -9 -15 -13 -17
-11 -7 7 7 26 19 26 6 0 6 -6 -2 -15z m70 -25 c0 -5 -4 -10 -10 -10 -5 0 -10
5 -10 10 0 6 5 10 10 10 6 0 10 -4 10 -10z m500 -10 c0 -5 -5 -10 -11 -10 -5
0 -7 5 -4 10 3 6 8 10 11 10 2 0 4 -4 4 -10z m-150 -10 c0 -5 -5 -10 -11 -10
-5 0 -7 5 -4 10 3 6 8 10 11 10 2 0 4 -4 4 -10z m370 -100 c0 -5 -2 -10 -4
-10 -3 0 -8 5 -11 10 -3 6 -1 10 4 10 6 0 11 -4 11 -10z m453 -57 c-7 -2 -19
-2 -25 0 -7 3 -2 5 12 5 14 0 19 -2 13 -5z m-1053 -13 c0 -5 -4 -10 -10 -10
-5 0 -10 5 -10 10 0 6 5 10 10 10 6 0 10 -4 10 -10z m777 -22 c-3 -8 -6 -5 -6
6 -1 11 2 17 5 13 3 -3 4 -12 1 -19z m-844 -35 c-7 -2 -19 -2 -25 0 -7 3 -2 5
12 5 14 0 19 -2 13 -5z m110 -80 c-13 -2 -33 -2 -45 0 -13 2 -3 4 22 4 25 0
35 -2 23 -4z m0 -50 c-13 -2 -33 -2 -45 0 -13 2 -3 4 22 4 25 0 35 -2 23 -4z
m-233 -70 c0 -32 -4 -53 -8 -46 -7 11 -4 103 4 103 2 0 4 -26 4 -57z m137 -29
c-3 -3 -12 -4 -19 -1 -8 3 -5 6 6 6 11 1 17 -2 13 -5z m-42 -14 c3 -5 1 -10
-4 -10 -6 0 -11 5 -11 10 0 6 2 10 4 10 3 0 8 -4 11 -10z m48 -17 c-7 -2 -19
-2 -25 0 -7 3 -2 5 12 5 14 0 19 -2 13 -5z m-48 -23 c3 -5 1 -10 -4 -10 -6 0
-11 5 -11 10 0 6 2 10 4 10 3 0 8 -4 11 -10z m75 0 c0 -5 -4 -10 -10 -10 -5 0
-10 5 -10 10 0 6 5 10 10 10 6 0 10 -4 10 -10z m420 -34 c0 -3 -4 -8 -10 -11
-5 -3 -10 -1 -10 4 0 6 5 11 10 11 6 0 10 -2 10 -4z m80 -25 c0 -5 -7 -11 -14
-14 -10 -4 -13 -1 -9 9 6 15 23 19 23 5z m580 -17 c0 -8 -4 -12 -10 -9 -5 3
-10 10 -10 16 0 5 5 9 10 9 6 0 10 -7 10 -16z m-623 -20 c-3 -3 -12 -4 -19 -1
-8 3 -5 6 6 6 11 1 17 -2 13 -5z m43 2 c0 -2 -7 -7 -16 -10 -8 -3 -12 -2 -9 4
6 10 25 14 25 6z m-150 -16 c0 -5 -2 -10 -4 -10 -3 0 -8 5 -11 10 -3 6 -1 10
4 10 6 0 11 -4 11 -10z m33 3 c-7 -2 -13 -12 -13 -20 0 -9 -3 -14 -6 -10 -10
10 4 37 18 36 10 0 10 -2 1 -6z m484 1 c-3 -3 -12 -4 -19 -1 -8 3 -5 6 6 6 11
1 17 -2 13 -5z m-64 -16 c-6 -11 -31 -10 -37 1 -3 5 5 8 18 7 13 0 22 -4 19
-8z m-876 -40 c-3 -8 -6 -5 -6 6 -1 11 2 17 5 13 3 -3 4 -12 1 -19z m70 0 c-3
-8 -6 -5 -6 6 -1 11 2 17 5 13 3 -3 4 -12 1 -19z m313 -24 c0 -8 -19 -13 -24
-6 -3 5 1 9 9 9 8 0 15 -2 15 -3z m656 -3 c-3 -5 8 -11 26 -15 17 -3 29 -8 27
-11 -3 -2 -22 0 -44 6 -28 8 -35 13 -24 20 18 11 22 11 15 0z m-756 -71 c0 -5
-5 -10 -11 -10 -5 0 -7 5 -4 10 3 6 8 10 11 10 2 0 4 -4 4 -10z m-383 -32 c-3
-8 -6 -5 -6 6 -1 11 2 17 5 13 3 -3 4 -12 1 -19z m383 -8 c0 -5 -4 -10 -10
-10 -5 0 -10 5 -10 10 0 6 5 10 10 10 6 0 10 -4 10 -10z m461 -14 c187 -55
463 -178 604 -271 33 -21 96 -75 141 -120 124 -122 174 -248 159 -397 -8 -88
-38 -212 -67 -277 l-23 -52 -39 51 c-72 95 -193 182 -311 225 -27 10 -51 19
-53 20 -1 1 9 22 23 46 31 55 33 124 6 178 -24 46 -121 137 -204 192 -94 62
-238 127 -317 145 -109 25 -160 80 -160 173 0 109 73 136 241 87z m-771 4 c0
-5 -5 -10 -11 -10 -5 0 -7 5 -4 10 3 6 8 10 11 10 2 0 4 -4 4 -10z m315 -30
c3 -5 2 -10 -4 -10 -5 0 -13 5 -16 10 -3 6 -2 10 4 10 5 0 13 -4 16 -10z m-88
-36 c-3 -3 -12 -4 -19 -1 -8 3 -5 6 6 6 11 1 17 -2 13 -5z m-4612 -376 l0
-231 -60 -33 c-76 -42 -161 -64 -243 -64 l-64 0 54 59 c107 119 173 269 185
423 l6 78 61 0 61 0 0 -232z m4785 101 c0 -12 -43 -4 -46 9 -1 7 0 8 3 2 9
-20 25 -10 20 13 -6 21 -6 21 8 3 8 -11 15 -23 15 -27z m-483 -71 c-2 -13 -4
-3 -4 22 0 25 2 35 4 23 2 -13 2 -33 0 -45z m104 29 c-10 -9 -11 -8 -5 6 3 10
9 15 12 12 3 -3 0 -11 -7 -18z m-21 -17 c0 -5 -5 -10 -11 -10 -5 0 -7 5 -4 10
3 6 8 10 11 10 2 0 4 -4 4 -10z m653 -77 c-7 -2 -19 -2 -25 0 -7 3 -2 5 12 5
14 0 19 -2 13 -5z m-723 -23 c0 -5 -5 -10 -11 -10 -5 0 -7 5 -4 10 3 6 8 10
11 10 2 0 4 -4 4 -10z m695 -10 c3 -5 2 -10 -4 -10 -5 0 -13 5 -16 10 -3 6 -2
10 4 10 5 0 13 -4 16 -10z m-65 -30 c0 -5 -2 -10 -4 -10 -3 0 -8 5 -11 10 -3
6 -1 10 4 10 6 0 11 -4 11 -10z m453 -146 c-5 -13 -7 -13 -14 -2 -7 11 -9 10
-9 -1 0 -8 -3 -11 -6 -8 -9 9 16 38 27 32 4 -3 5 -13 2 -21z m-226 -80 c-3 -3
-12 -4 -19 -1 -8 3 -5 6 6 6 11 1 17 -2 13 -5z m-870 -121 c-3 -10 -5 -2 -5
17 0 19 2 27 5 18 2 -10 2 -26 0 -35z m0 -70 c-3 -10 -5 -2 -5 17 0 19 2 27 5
18 2 -10 2 -26 0 -35z m630 11 c-3 -3 -12 -4 -19 -1 -8 3 -5 6 6 6 11 1 17 -2
13 -5z m507 -14 c155 -40 320 -152 394 -268 46 -71 75 -167 70 -229 -3 -29 -8
-56 -11 -59 -4 -4 -24 9 -46 29 -40 36 -86 56 -98 43 -4 -3 2 -32 12 -64 66
-209 -2 -410 -182 -534 -43 -29 -67 -60 -56 -72 13 -12 84 -6 132 13 27 10 66
31 87 47 l37 29 -6 -35 c-34 -169 -201 -283 -382 -260 -127 16 -209 83 -259
209 -15 39 -32 73 -36 76 -14 9 -32 -34 -39 -89 -8 -63 -20 -67 -101 -30 -100
44 -157 123 -195 267 -10 37 -23 66 -28 64 -16 -5 -37 -75 -39 -133 -1 -30 -5
-54 -8 -54 -17 0 -82 82 -104 130 -55 122 -52 255 9 387 148 320 409 437 753
337 57 -17 -3 61 -90 114 -31 19 -36 27 -29 45 10 27 66 57 107 57 17 0 65 -9
108 -20z m-830 -119 c3 -5 -5 -8 -18 -7 -13 0 -22 4 -19 9 6 10 31 9 37 -2z
m-186 -245 c-7 -8 -15 -12 -17 -11 -5 6 10 25 20 25 5 0 4 -6 -3 -14z m-68
-420 c0 -3 -4 -8 -10 -11 -5 -3 -10 -1 -10 4 0 6 5 11 10 11 6 0 10 -2 10 -4z"/>
<path d="M7855 7490 c-3 -5 0 -10 7 -10 11 0 10 -2 0 -9 -11 -7 -11 -9 2 -14
11 -5 16 -1 16 13 0 22 -16 35 -25 20z"/>
<path d="M7490 7250 c0 -5 5 -10 11 -10 5 0 7 5 4 10 -3 6 -8 10 -11 10 -2 0
-4 -4 -4 -10z"/>
<path d="M7425 7210 c-3 -5 -2 -10 4 -10 5 0 13 5 16 10 3 6 2 10 -4 10 -5 0
-13 -4 -16 -10z"/>
<path d="M7225 7080 c-3 -5 -2 -10 4 -10 5 0 13 5 16 10 3 6 2 10 -4 10 -5 0
-13 -4 -16 -10z"/>
<path d="M7096 7002 c-3 -5 1 -9 9 -9 8 0 12 4 9 9 -3 4 -7 8 -9 8 -2 0 -6 -4
-9 -8z"/>
<path d="M6997 6920 c-3 -11 -11 -20 -19 -19 -10 0 -10 2 0 6 6 2 12 9 12 15
0 6 -6 5 -15 -2 -10 -8 -12 -17 -6 -23 12 -12 51 9 51 28 0 22 -17 18 -23 -5z"/>
<path d="M6855 6847 c-12 -9 -14 -16 -7 -21 6 -3 16 3 22 14 13 24 10 25 -15
7z"/>
<path d="M6594 6658 c-3 -4 4 -8 15 -8 11 0 22 4 25 8 2 4 -4 8 -15 8 -11 0
-23 -4 -25 -8z"/>
<path d="M7535 4990 c27 -12 43 -12 25 0 -8 5 -22 9 -30 9 -10 0 -8 -3 5 -9z"/>
<path d="M7196 4422 c-3 -5 1 -9 9 -9 8 0 12 4 9 9 -3 4 -7 8 -9 8 -2 0 -6 -4
-9 -8z"/>
<path d="M7283 3885 c0 -8 4 -15 9 -15 4 0 8 7 8 15 0 8 -4 15 -8 15 -5 0 -9
-7 -9 -15z"/>
<path d="M3542 6393 c-59 -21 -112 -75 -112 -114 0 -68 38 -86 113 -54 67 28
147 12 227 -45 51 -36 100 -22 100 30 0 34 -49 111 -88 139 -84 59 -158 73
-240 44z"/>
<path d="M5217 6260 c-54 -14 -110 -44 -152 -84 -30 -28 -36 -41 -33 -67 5
-51 26 -57 103 -30 90 32 148 26 219 -23 62 -43 99 -46 122 -11 21 33 12 81
-25 132 -49 68 -150 104 -234 83z"/>
<path d="M3636 5975 c-82 -29 -166 -146 -197 -275 -20 -84 -15 -233 10 -304
67 -192 214 -250 344 -136 142 125 192 412 102 590 -59 117 -154 163 -259 125z"/>
<path d="M5123 5821 c-57 -26 -117 -91 -153 -165 -99 -201 -69 -460 65 -562
50 -38 134 -45 191 -16 75 38 136 125 180 252 26 74 25 253 0 324 -54 149
-172 219 -283 167z"/>
<path d="M3625 4871 c-23 -10 -49 -38 -58 -63 -4 -10 11 -51 35 -100 33 -67
60 -102 137 -178 78 -78 113 -105 186 -142 191 -98 335 -133 540 -132 254 2
467 79 632 229 l68 62 30 -19 c60 -36 125 -9 125 53 0 87 -140 228 -227 229
-28 0 -79 -43 -87 -75 -4 -14 -2 -34 4 -45 9 -16 2 -26 -51 -70 -203 -169
-528 -216 -808 -118 -124 43 -198 85 -261 148 -56 55 -120 140 -120 159 0 5
-12 23 -26 40 -20 25 -33 31 -62 30 -21 0 -46 -4 -57 -8z"/>
<path d="M2292 4200 c0 -14 2 -19 5 -12 2 6 2 18 0 25 -3 6 -5 1 -5 -13z"/>
</g>
</svg>
